<svg viewBox="0 0 86 40" xmlns="http://www.w3.org/2000/svg" fill-rule="evenodd" clip-rule="evenodd" stroke-linejoin="round" stroke-miterlimit="2">
  <g transform="scale(.65451 1)">
    <path fill="none" d="M0 0h130v40H0z"/>
    <clipPath id="a">
      <path d="M0 0h130v40H0z"/>
    </clipPath>
    <g clip-path="url(#a)">
      <path d="M0 28.755h18.15v-2.88H5.684v-4.68h11.294v-2.832H5.683v-4.128h12.064v-2.832H0v17.352zM18.847 16.635l6.784 12.12h6.014l6.673-12.12h-5.243l-4.254 8.232-4.18-8.232h-5.794zM57.056 23.595c.074-1.008.147-2.784-1.1-4.44-1.687-2.256-4.84-2.928-7.48-2.928-2.017 0-3.777.384-5.207 1.008-3.117 1.416-3.85 3.768-3.85 5.736 0 1.944.696 3.576 2.383 4.728 1.943 1.32 4.95 1.512 6.527 1.512 2.714 0 5.134-.48 6.49-1.416 1.504-1.032 1.687-2.064 1.76-2.64h-4.95c-.513 1.344-1.87 1.68-3.227 1.68-3.776 0-3.776-2.448-3.776-3.24h12.43zM44.81 21.363c.11-1.416 1.1-2.712 3.483-2.712 3.154 0 3.227 2.16 3.227 2.712h-6.71zM59.622 28.755h5.463v-7.104c0-.936.33-1.536.66-1.848.587-.576 1.65-.936 2.824-.936 1.393 0 2.237.504 2.64 1.032.293.384.293.816.293 1.32v7.536h5.537v-6.552c0-2.256-.11-2.88-.513-3.624-.477-.84-2.017-2.28-5.647-2.28-4.034 0-5.5 1.56-6.014 2.112l-.146-1.824h-5.207c.11.84.11 2.16.11 2.208v9.96zM91.746 26.26c-.66.047-1.027.071-1.833.071-2.42 0-2.42-.696-2.457-1.8V19.06h4.4v-2.352h-4.4v-3.672l-5.39 1.296v2.376h-3.557v2.352h3.556v6.648c0 1.008 0 3.264 5.464 3.264.88 0 2.457-.072 4.217-.384V26.26zM92.697 25.251c.037.576.147 1.536 1.357 2.376 1.686 1.152 3.96 1.488 6.343 1.488 5.757 0 8.508-2.088 8.508-4.176 0-1.656-1.577-2.784-4.95-3.384l-3.338-.6c-1.613-.288-2.53-.456-2.53-1.272 0-.744 1.1-1.2 2.567-1.2.843 0 2.494.096 2.64 1.44h4.95c-.146-2.424-3.226-3.576-7.04-3.576-4.803 0-8.104 1.44-8.104 3.792 0 2.472 3.19 3.072 4.694 3.36l3.373.6c2.127.384 2.567.816 2.567 1.368 0 .72-.916 1.44-2.86 1.44-2.273 0-3.007-.888-3.08-1.656h-5.097z" fill="#2b3748" fill-rule="nonzero"/>
      <g>
        <path d="M112.216 24.195c0 .672.073 2.568 2.346 3.792 1.65.864 4.327 1.128 6.16 1.128 5.318 0 9.278-2.112 9.278-4.944 0-.792-.293-2.016-2.09-3-1.174-.648-2.237-.864-3.044-1.032 1.137-.216 4.914-.984 4.914-3.792 0-1.824-2.09-4.56-8.617-4.56-2.714 0-5.427.504-7.114 1.848-1.283 1.032-1.393 2.088-1.503 2.832h5.61c0-1.392 1.54-2.088 3.117-2.088 1.65 0 3.153.672 3.153 1.992 0 2.4-3.777 2.448-6.343 2.496v2.808c2.676 0 6.307 0 6.307 2.472 0 1.296-1.247 2.28-3.3 2.28-3.044 0-3.264-1.704-3.3-2.232h-5.574z" fill="#8ba7d7" fill-rule="nonzero"/>
      </g>
    </g>
  </g>
</svg>
