<svg viewBox="0 0 130 40" xmlns="http://www.w3.org/2000/svg" fill-rule="evenodd" clip-rule="evenodd" stroke-linejoin="round" stroke-miterlimit="2">
  <g>
    <path fill="none" d="M0 0h130v40H0z"/>
    <clipPath id="a">
      <path d="M0 0h130v40H0z"/>
    </clipPath>
    <g clip-path="url(#a)">
      <path d="M44.914 28.755h11.88v-2.88h-8.16v-4.68h7.392v-2.832h-7.392v-4.128h7.896v-2.832H44.914v17.352zM57.25 16.635l4.44 12.12h3.936l4.368-12.12h-3.432l-2.784 8.232-2.736-8.232H57.25zM82.258 23.595c.048-1.008.096-2.784-.72-4.44-1.104-2.256-3.168-2.928-4.896-2.928-1.32 0-2.472.384-3.408 1.008-2.04 1.416-2.52 3.768-2.52 5.736 0 1.944.456 3.576 1.56 4.728 1.272 1.32 3.24 1.512 4.272 1.512 1.776 0 3.36-.48 4.248-1.416.984-1.032 1.104-2.064 1.152-2.64h-3.24c-.336 1.344-1.224 1.68-2.112 1.68-2.472 0-2.472-2.448-2.472-3.24h8.136zm-8.016-2.232c.072-1.416.72-2.712 2.28-2.712 2.064 0 2.112 2.16 2.112 2.712h-4.392zM83.937 28.755h3.576v-7.104c0-.936.216-1.536.432-1.848.384-.576 1.08-.936 1.848-.936.912 0 1.464.504 1.728 1.032.192.384.192.816.192 1.32v7.536h3.624v-6.552c0-2.256-.072-2.88-.336-3.624-.312-.84-1.32-2.28-3.696-2.28-2.64 0-3.6 1.56-3.936 2.112l-.096-1.824h-3.408c.072.84.072 2.16.072 2.208v9.96zM104.963 26.26a8.957 8.957 0 01-1.2.071c-1.584 0-1.584-.696-1.608-1.8V19.06h2.88v-2.352h-2.88v-3.672l-3.528 1.296v2.376H96.3v2.352h2.328v6.648c0 1.008 0 3.264 3.576 3.264.576 0 1.608-.072 2.76-.384V26.26zM105.586 25.251c.024.576.096 1.536.888 2.376 1.104 1.152 2.592 1.488 4.152 1.488 3.768 0 5.568-2.088 5.568-4.176 0-1.656-1.032-2.784-3.24-3.384l-2.184-.6c-1.056-.288-1.656-.456-1.656-1.272 0-.744.72-1.2 1.68-1.2.552 0 1.632.096 1.728 1.44h3.24c-.096-2.424-2.112-3.576-4.608-3.576-3.144 0-5.304 1.44-5.304 3.792 0 2.472 2.088 3.072 3.072 3.36l2.208.6c1.392.384 1.68.816 1.68 1.368 0 .72-.6 1.44-1.872 1.44-1.488 0-1.968-.888-2.016-1.656h-3.336z" fill="#2b3748" fill-rule="nonzero"/>
      <g>
        <path d="M118.36 24.195c0 .672.048 2.568 1.536 3.792 1.08.864 2.832 1.128 4.032 1.128 3.48 0 6.072-2.112 6.072-4.944 0-.792-.192-2.016-1.368-3-.768-.648-1.464-.864-1.992-1.032.744-.216 3.216-.984 3.216-3.792 0-1.824-1.368-4.56-5.64-4.56-1.776 0-3.552.504-4.656 1.848-.84 1.032-.912 2.088-.984 2.832h3.672c0-1.392 1.008-2.088 2.04-2.088 1.08 0 2.064.672 2.064 1.992 0 2.4-2.472 2.448-4.152 2.496v2.808c1.752 0 4.128 0 4.128 2.472 0 1.296-.816 2.28-2.16 2.28-1.992 0-2.136-1.704-2.16-2.232h-3.648z" fill="#8ba7d7" fill-rule="nonzero"/>
      </g>
      <g>
        <path d="M11.64 29.816c.547 2.016 1.256 3.815 2.092 5.318-2.849.817-5.343.75-7.065-.345l4.973-4.973zM33.333 34.79c-1.722 1.094-4.216 1.16-7.065.344.836-1.503 1.546-3.302 2.092-5.318l4.973 4.973z" fill="#52c8ee"/>
        <path d="M20 32.235c2.167 1.354 4.302 2.337 6.268 2.9C24.588 38.164 22.396 40 20 40c-2.395 0-4.587-1.834-6.268-4.866 1.966-.562 4.101-1.545 6.268-2.9z" fill="#52c8ee"/>
        <path d="M13.952 27.504c1.97 1.875 4.023 3.465 6.048 4.73-2.167 1.355-4.302 2.338-6.268 2.9-.836-1.502-1.545-3.3-2.092-5.318l2.312-2.312zM28.36 29.816c-.546 2.016-1.256 3.815-2.092 5.318-1.966-.562-4.1-1.545-6.268-2.9 2.025-1.264 4.078-2.855 6.048-4.73l-1.412-1.412 3.724 3.724z" fill="#1a9dde"/>
        <path d="M13.952 27.504l1.412-1.412a6.56 6.56 0 019.272 0l1.412 1.412c-1.97 1.875-4.023 3.466-6.048 4.73-2.024-1.264-4.077-2.854-6.048-4.73z" fill="#087bcf"/>
        <g>
          <path d="M5.21 33.333c-1.094-1.722-1.16-4.216-.344-7.065 1.503.836 3.302 1.545 5.318 2.092l3.724-3.724-8.697 8.697zM10.184 11.64c-2.016.547-3.815 1.256-5.318 2.092-.817-2.849-.75-5.343.345-7.065l4.973 4.973z" fill="#bc4993"/>
          <path d="M4.866 13.732c.562 1.966 1.545 4.1 2.9 6.268-1.355 2.167-2.338 4.302-2.9 6.268C1.834 24.588 0 22.395 0 20c0-2.395 1.834-4.587 4.866-6.268z" fill="#bc4993"/>
          <path d="M10.184 28.36c-2.016-.547-3.815-1.256-5.318-2.092.562-1.966 1.545-4.101 2.9-6.268 1.264 2.025 2.855 4.078 4.73 6.048l1.412-1.412-3.724 3.724zM12.496 13.952c-1.875 1.97-3.465 4.023-4.73 6.048-1.355-2.167-2.338-4.302-2.9-6.268 1.503-.836 3.302-1.545 5.318-2.092l2.312 2.312z" fill="#8b1555"/>
          <path d="M13.908 15.364a6.56 6.56 0 010 9.272l-1.412 1.412c-1.875-1.97-3.466-4.023-4.73-6.048 1.265-2.025 2.855-4.078 4.73-6.048l1.412 1.412z" fill="#660631"/>
        </g>
        <g>
          <path d="M34.805 6.691c1.08 1.721 1.142 4.206.33 7.041-1.496-.832-3.285-1.538-5.288-2.083l-2.324 2.324 7.282-7.282zM27.484 26.068l2.3 2.3c2.03-.547 3.84-1.26 5.35-2.1.82 2.862.75 5.367-.36 7.09l-7.29-7.29z" fill="#a0c54b"/>
          <path d="M35.134 13.732C38.166 15.412 40 17.604 40 20c0 2.395-1.834 4.587-4.866 6.268-.562-1.966-1.545-4.101-2.9-6.268 1.355-2.167 2.338-4.302 2.9-6.268z" fill="#a0c54b"/>
          <path d="M26.092 15.404l3.755-3.755c2.004.545 3.792 1.251 5.287 2.083-.562 1.966-1.545 4.101-2.9 6.268-1.26-2.018-2.844-4.064-4.71-6.027l-1.432 1.43zM32.234 20c1.355 2.167 2.338 4.302 2.9 6.268-1.51.84-3.32 1.553-5.35 2.1l-2.3-2.3c1.884-1.976 3.48-4.036 4.75-6.068z" fill="#649816"/>
          <path d="M27.484 26.068l-1.392-1.392a6.56 6.56 0 010-9.272l1.431-1.431c1.867 1.963 3.45 4.009 4.711 6.027-1.269 2.032-2.865 4.091-4.75 6.068z" fill="#3f7506"/>
        </g>
        <g>
          <path d="M26.268 4.866c2.849-.817 5.343-.75 7.065.345l-7.285 7.285 2.312-2.312c-.546-2.016-1.256-3.815-2.092-5.318zM13.952 12.496L6.667 5.211c1.722-1.095 4.216-1.162 7.065-.345-.836 1.503-1.545 3.302-2.092 5.318l2.312 2.312zM13.732 4.866C15.412 1.834 17.605 0 20 0c2.396 0 4.587 1.834 6.268 4.866-1.966.562-4.1 1.545-6.268 2.9-2.167-1.355-4.302-2.338-6.268-2.9z" fill="#f8c538"/>
          <path d="M20 7.766c2.167-1.355 4.302-2.338 6.268-2.9.836 1.503 1.546 3.302 2.092 5.318l-2.312 2.312c-1.97-1.875-4.023-3.465-6.048-4.73zM13.952 12.496l-2.312-2.312c.547-2.016 1.256-3.815 2.092-5.318 1.966.562 4.101 1.545 6.268 2.9-2.025 1.264-4.078 2.855-6.048 4.73z" fill="#f1980c"/>
          <path d="M20 7.766c2.025 1.265 4.078 2.855 6.048 4.73l-1.412 1.412a6.532 6.532 0 01-4.321 1.912l-.315.007a6.537 6.537 0 01-4.636-1.919l-1.412-1.412c1.97-1.875 4.023-3.466 6.048-4.73z" fill="#ea7503"/>
        </g>
        <path d="M20.02 15.827a6.536 6.536 0 004.616-1.919l8.697-8.697a4.712 4.712 0 011.472 1.48l-8.713 8.713a6.56 6.56 0 000 9.272l8.682 8.682a4.722 4.722 0 01-1.44 1.431l-8.698-8.697a6.537 6.537 0 00-4.616-1.919H20c-1.678 0-3.357.64-4.636 1.919l-8.697 8.697a4.72 4.72 0 01-1.456-1.456l8.697-8.697a6.56 6.56 0 000-9.272L5.211 6.667A4.715 4.715 0 016.667 5.21l8.697 8.697A6.537 6.537 0 0020 15.827h.02z" fill="#fff"/>
        <g transform="matrix(.02657 0 0 .02657 -13.229 -23.811)">
          <circle cx="1251" cy="1336" r="102" fill="#fff"/>
        </g>
      </g>
    </g>
  </g>
</svg>
