<svg viewBox="0 0 36 36" xmlns="http://www.w3.org/2000/svg" fill-rule="evenodd" clip-rule="evenodd" stroke-linejoin="round" stroke-miterlimit="2">
  <g transform="translate(0 -90)">
    <path fill="none" d="M0 90h36v36H0z"/>
    <clipPath id="a">
      <path d="M0 90h36v36H0z"/>
    </clipPath>
    <g clip-path="url(#a)">
      <path d="M10.476 116.834c.492 1.815 1.13 3.434 1.883 4.787-2.564.735-4.809.675-6.36-.31l4.477-4.477zM30 121.31c-1.55.986-3.795 1.046-6.359.311.753-1.353 1.391-2.972 1.883-4.787L30 121.31zM18 119.011c1.95 1.22 3.872 2.104 5.641 2.61C22.13 124.349 20.156 126 18 126s-4.128-1.65-5.641-4.379c1.77-.506 3.69-1.39 5.641-2.61z" fill="#52c8ee"/>
      <path d="M12.557 114.753c1.773 1.688 3.62 3.12 5.443 4.258-1.95 1.22-3.872 2.104-5.641 2.61-.753-1.353-1.39-2.971-1.883-4.787l2.081-2.08zM25.524 116.834c-.492 1.815-1.13 3.434-1.883 4.787-1.77-.506-3.69-1.39-5.641-2.61 1.822-1.138 3.67-2.57 5.443-4.258l-1.27-1.27 3.35 3.351z" fill="#1a9dde"/>
      <path d="M12.557 114.753l1.27-1.27a5.904 5.904 0 018.345 0l1.27 1.27c-1.772 1.688-3.62 3.12-5.442 4.258-1.822-1.138-3.67-2.569-5.443-4.258z" fill="#087bcf"/>
      <g>
        <path d="M4.69 120c-.986-1.55-1.046-3.795-.31-6.359 1.352.753 2.971 1.391 4.786 1.883l3.351-3.352L4.69 120zM9.166 100.476c-1.815.492-3.434 1.13-4.787 1.883-.735-2.564-.675-4.809.31-6.36l4.477 4.477zM4.38 102.359c.505 1.77 1.39 3.69 2.609 5.641-1.22 1.95-2.104 3.872-2.61 5.641C1.651 112.13 0 110.156 0 108s1.65-4.129 4.38-5.641z" fill="#bc4993"/>
        <path d="M9.166 115.524c-1.815-.492-3.434-1.13-4.787-1.883.506-1.77 1.39-3.69 2.61-5.641 1.138 1.823 2.57 3.67 4.258 5.443l1.27-1.27-3.351 3.35zM11.247 102.557c-1.688 1.773-3.12 3.62-4.258 5.443-1.22-1.95-2.104-3.872-2.61-5.641 1.353-.753 2.972-1.391 4.787-1.883l2.08 2.081z" fill="#8b1555"/>
        <path d="M12.517 103.828a5.904 5.904 0 010 8.344l-1.27 1.27c-1.688-1.772-3.12-3.62-4.258-5.442 1.139-1.823 2.57-3.67 4.258-5.443l1.27 1.27z" fill="#660631"/>
      </g>
      <g>
        <path d="M31.325 96.022c.971 1.55 1.027 3.785.296 6.337-1.346-.75-2.956-1.385-4.758-1.875l-2.092 2.092 6.554-6.554zM24.736 113.461l2.07 2.07c1.826-.492 3.455-1.133 4.815-1.89.738 2.576.674 4.83-.324 6.381l-6.561-6.56z" fill="#a0c54b"/>
        <path d="M31.62 102.359C34.35 103.87 36 105.844 36 108s-1.65 4.129-4.38 5.641c-.505-1.77-1.39-3.691-2.609-5.64 1.22-1.951 2.104-3.873 2.61-5.642z" fill="#a0c54b"/>
        <path d="M23.483 103.863l3.38-3.38c1.803.492 3.412 1.127 4.758 1.876-.506 1.77-1.39 3.69-2.61 5.641-1.135-1.816-2.56-3.657-4.24-5.424l-1.288 1.287z" fill="#649816"/>
        <path d="M29.01 108c1.22 1.95 2.105 3.872 2.61 5.641-1.36.757-2.988 1.398-4.814 1.89l-2.07-2.07c1.695-1.778 3.132-3.632 4.275-5.461z" fill="#649816"/>
        <path d="M24.736 113.461l-1.253-1.253a5.904 5.904 0 010-8.345l1.288-1.287c1.68 1.767 3.105 3.608 4.24 5.424-1.142 1.828-2.579 3.682-4.275 5.461z" fill="#3f7506"/>
      </g>
      <g>
        <path d="M23.641 94.38c2.564-.736 4.809-.676 6.36.31l-6.558 6.557 2.08-2.081c-.49-1.815-1.13-3.434-1.882-4.787zM12.557 101.247L6 94.69c1.55-.986 3.795-1.046 6.359-.31-.753 1.352-1.391 2.971-1.883 4.786l2.081 2.08z" fill="#f8c538"/>
        <path d="M12.359 94.38C13.872 91.65 15.844 90 18 90s4.129 1.65 5.641 4.38c-1.77.505-3.69 1.39-5.641 2.609-1.95-1.22-3.872-2.104-5.641-2.61z" fill="#f8c538"/>
        <path d="M18 96.99c1.95-1.22 3.872-2.105 5.641-2.61.753 1.352 1.391 2.971 1.883 4.786l-2.081 2.08C21.67 99.56 19.823 98.129 18 96.99zM12.557 101.247l-2.08-2.081c.49-1.815 1.13-3.434 1.882-4.787 1.77.506 3.691 1.39 5.641 2.61-1.823 1.138-3.67 2.57-5.443 4.258z" fill="#f1980c"/>
        <path d="M18 96.99c1.823 1.138 3.67 2.569 5.443 4.257l-1.27 1.27a5.88 5.88 0 01-3.89 1.72l-.283.007c-1.51 0-3.02-.575-4.172-1.727l-1.27-1.27c1.772-1.688 3.62-3.12 5.442-4.258z" fill="#ea7503"/>
      </g>
      <path d="M18.018 104.244a5.882 5.882 0 004.154-1.727L30 94.69a4.241 4.241 0 011.325 1.332l-7.842 7.841a5.904 5.904 0 000 8.345l7.814 7.814A4.25 4.25 0 0130 121.31l-7.828-7.827a5.883 5.883 0 00-4.154-1.727H18c-1.51 0-3.02.576-4.172 1.727L6 121.31A4.248 4.248 0 014.69 120l7.827-7.828a5.904 5.904 0 000-8.344L4.69 96A4.243 4.243 0 016 94.69l7.829 7.827A5.883 5.883 0 0018 104.244h.018z" fill="#fff"/>
      <g transform="translate(-11.906 68.57) scale(.02391)">
        <circle cx="1251" cy="1336" r="102" fill="#fff"/>
      </g>
    </g>
  </g>
</svg>
