<?xml version="1.0" standalone="no"?>
<!DOCTYPE svg PUBLIC "-//W3C//DTD SVG 20010904//EN"
 "http://www.w3.org/TR/2001/REC-SVG-20010904/DTD/svg10.dtd">
<svg version="1.0" xmlns="http://www.w3.org/2000/svg"
 width="260.000000pt" height="260.000000pt" viewBox="0 0 260.000000 260.000000"
 preserveAspectRatio="xMidYMid meet">
<metadata>
Created by potrace 1.11, written by Peter Selinger 2001-2013
</metadata>
<g transform="translate(0.000000,260.000000) scale(0.100000,-0.100000)"
fill="#000000" stroke="none">
<path d="M1213 2586 c-53 -17 -117 -56 -164 -98 -50 -45 -122 -137 -138 -174
l-12 -31 -67 15 c-103 24 -263 20 -333 -7 -80 -31 -142 -89 -181 -169 -30 -63
-32 -74 -32 -177 0 -62 7 -138 16 -175 l15 -65 -56 -33 c-82 -48 -221 -186
-221 -219 0 -5 -8 -25 -18 -44 -12 -24 -17 -57 -17 -110 0 -65 5 -85 33 -142
38 -76 112 -154 211 -222 l68 -47 -18 -76 c-17 -73 -20 -210 -6 -269 29 -118
132 -221 249 -250 51 -12 208 -10 259 3 86 23 92 21 133 -46 54 -86 145 -173
223 -212 58 -28 77 -33 143 -33 66 0 85 5 143 33 79 39 162 118 223 213 l43
67 77 -18 c112 -26 251 -21 325 12 104 47 170 127 195 235 14 61 11 204 -5
268 -19 72 -16 79 49 119 86 54 174 145 212 224 29 58 33 77 33 142 0 65 -5
85 -32 141 -19 37 -57 90 -89 122 -54 55 -163 137 -182 137 -6 0 -2 36 8 82
24 112 20 244 -10 322 -31 81 -105 156 -185 186 -74 28 -215 34 -302 14 -92
-22 -96 -21 -136 44 -52 85 -148 176 -222 213 -74 36 -166 46 -232 25z"/>
</g>
</svg>
